<svg width="57" height="57" viewBox="0 0 57 57" fill="none" xmlns="http://www.w3.org/2000/svg">
<rect width="57" height="57" rx="28.5" fill="#E10512"/>
<path d="M20.75 42.75C21.4404 42.75 22 42.1904 22 41.5C22 40.8096 21.4404 40.25 20.75 40.25C20.0596 40.25 19.5 40.8096 19.5 41.5C19.5 42.1904 20.0596 42.75 20.75 42.75Z" stroke="white" stroke-width="3" stroke-linecap="round" stroke-linejoin="round"/>
<path d="M38.25 42.75C38.9404 42.75 39.5 42.1904 39.5 41.5C39.5 40.8096 38.9404 40.25 38.25 40.25C37.5596 40.25 37 40.8096 37 41.5C37 42.1904 37.5596 42.75 38.25 42.75Z" stroke="white" stroke-width="3" stroke-linecap="round" stroke-linejoin="round"/>
<path d="M10.75 15.25H15.75L19.5 36.5H39.5" stroke="white" stroke-width="3" stroke-linecap="round" stroke-linejoin="round"/>
<path d="M19.5 31.5H38.9875C39.132 31.5001 39.2722 31.4501 39.384 31.3585C39.4958 31.2669 39.5724 31.1394 39.6008 30.9977L41.8508 19.7477C41.8689 19.6569 41.8667 19.5633 41.8443 19.4736C41.8219 19.3838 41.7798 19.3002 41.7212 19.2286C41.6625 19.1571 41.5887 19.0995 41.505 19.0599C41.4214 19.0204 41.33 18.9999 41.2375 19H17" stroke="white" stroke-width="3" stroke-linecap="round" stroke-linejoin="round"/>
</svg>
