<svg width="196" height="179" viewBox="0 0 196 179" fill="none" xmlns="http://www.w3.org/2000/svg">
<path d="M67.6784 150.75C71.0329 150.75 73.7522 148.266 73.7522 145.202C73.7522 142.138 71.0329 139.654 67.6784 139.654C64.3239 139.654 61.6045 142.138 61.6045 145.202C61.6045 148.266 64.3239 150.75 67.6784 150.75Z" stroke="white" stroke-width="10" stroke-linecap="round" stroke-linejoin="round"/>
<path d="M152.713 150.75C156.067 150.75 158.786 148.266 158.786 145.202C158.786 142.138 156.067 139.654 152.713 139.654C149.358 139.654 146.639 142.138 146.639 145.202C146.639 148.266 149.358 150.75 152.713 150.75Z" stroke="white" stroke-width="10" stroke-linecap="round" stroke-linejoin="round"/>
<path d="M19.0879 28.6887H43.3834L61.605 123.009H158.787" stroke="white" stroke-width="10" stroke-linecap="round" stroke-linejoin="round"/>
<path d="M61.6048 100.816H156.296C156.999 100.816 157.68 100.594 158.223 100.188C158.766 99.7814 159.139 99.2154 159.276 98.5863L170.209 48.652C170.298 48.2494 170.287 47.8339 170.178 47.4355C170.069 47.0371 169.865 46.6657 169.58 46.3483C169.294 46.0308 168.936 45.7751 168.529 45.5996C168.123 45.4241 167.679 45.3332 167.229 45.3335H49.457" stroke="white" stroke-width="10" stroke-linecap="round" stroke-linejoin="round"/>
</svg>
