<svg width="54" height="76" viewBox="0 0 54 76" fill="none" xmlns="http://www.w3.org/2000/svg">
<path d="M27 3.93701C13.75 3.93701 3 14.1077 3 26.6342C3 41.0477 19 63.889 24.875 71.7784C25.1189 72.1114 25.4385 72.3824 25.8078 72.5692C26.1771 72.7561 26.5856 72.8535 27 72.8535C27.4144 72.8535 27.8229 72.7561 28.1922 72.5692C28.5615 72.3824 28.8811 72.1114 29.125 71.7784C35 63.8923 51 41.0593 51 26.6342C51 14.1077 40.25 3.93701 27 3.93701Z" stroke="#E10512" stroke-width="6" stroke-linecap="round" stroke-linejoin="round"/>
<path d="M27 35.8982C31.4183 35.8982 35 32.3208 35 27.9079C35 23.495 31.4183 19.9176 27 19.9176C22.5817 19.9176 19 23.495 19 27.9079C19 32.3208 22.5817 35.8982 27 35.8982Z" stroke="#E10512" stroke-width="6" stroke-linecap="round" stroke-linejoin="round"/>
</svg>
