<svg width="76" height="76" viewBox="0 0 76 76" fill="none" xmlns="http://www.w3.org/2000/svg">
<path d="M70.8463 57.9431C68.2123 55.2926 61.833 51.4244 58.7379 49.8656C54.7072 47.838 54.3755 47.6723 51.2074 50.023C49.0942 51.5918 47.6893 52.9932 45.2162 52.4664C42.7431 51.9396 37.3689 48.9694 32.6632 44.2846C27.9575 39.5998 24.8109 34.0768 24.2818 31.6151C23.7527 29.1535 25.1792 27.7669 26.735 25.6515C28.9278 22.6696 28.7619 22.1727 26.8876 18.1472C25.4263 15.0163 21.4405 8.7047 18.7766 6.08731C15.927 3.27611 15.927 3.77308 14.0908 4.5351C12.5959 5.16326 11.1618 5.92681 9.80638 6.81621C7.15247 8.57715 5.67955 10.0399 4.6495 12.2382C3.61945 14.4364 3.15667 19.5901 8.47611 29.2413C13.7955 38.8925 17.5276 43.8274 25.2521 51.5205C32.9767 59.2137 38.9165 63.3501 47.5997 68.2138C58.3414 74.2222 62.4616 73.051 64.6694 72.024C66.8771 70.9969 68.3483 69.5391 70.1148 66.8886C71.0077 65.5372 71.7739 64.1065 72.4038 62.6146C73.1685 60.7874 73.6661 60.7874 70.8463 57.9431Z" stroke="#E10512" stroke-width="6" stroke-miterlimit="10"/>
</svg>
