<svg width="70" height="76" viewBox="0 0 70 76" fill="none" xmlns="http://www.w3.org/2000/svg">
<path d="M39.4196 57.5899C39.4196 59.9542 38.0368 61.8704 35.6696 61.8704H26.8304C24.4632 61.8704 23.0804 59.9542 23.0804 57.5899M40.3571 52.2393C41.5404 52.2393 42.5 53.4371 42.5 54.9146C42.5 56.392 41.5404 57.5899 40.3571 57.5899H22.1429C20.9596 57.5899 20 56.392 20 54.9146C20 53.4371 20.9596 52.2393 22.1429 52.2393" stroke="#E10512" stroke-width="2" stroke-miterlimit="10" stroke-linecap="round"/>
<path d="M22.1429 48.2263V48.2116C22.1429 44.533 25.1562 42.6081 28.8393 42.6081H33.6607C37.3437 42.6081 40.3571 44.5477 40.3571 48.2263V48.2116M33.9955 37.2574L34.4937 41.536M40.8929 52.2393H29.8645C29.7226 52.2394 29.5865 52.2956 29.4862 52.3958L27.6895 54.1903C27.6646 54.2151 27.6351 54.2349 27.6026 54.2483C27.5701 54.2618 27.5352 54.2687 27.5 54.2687C27.4648 54.2687 27.4299 54.2618 27.3974 54.2483C27.3649 54.2349 27.3354 54.2151 27.3105 54.1903L25.5138 52.3958C25.4135 52.2956 25.2774 52.2394 25.1355 52.2393H21.6071C21.1809 52.2393 20.7721 52.0702 20.4707 51.7691C20.1693 51.4681 20 51.0598 20 50.6341V50.6341C20 50.2084 20.1693 49.8001 20.4707 49.499C20.7721 49.198 21.1809 49.0289 21.6071 49.0289H40.8929C41.3191 49.0289 41.7279 49.198 42.0293 49.499C42.3307 49.8001 42.5 50.2084 42.5 50.6341C42.5 51.0598 42.3307 51.4681 42.0293 51.7691C41.7279 52.0702 41.3191 52.2393 40.8929 52.2393Z" stroke="#E10512" stroke-width="2" stroke-miterlimit="10" stroke-linecap="round"/>
<path d="M35 61.8705H44.3288C44.8694 61.8705 45.39 61.6664 45.7863 61.2991C46.1826 60.9318 46.4252 60.4285 46.4656 59.8901L48.8616 37.2574" stroke="#E10512" stroke-width="2" stroke-miterlimit="10" stroke-linecap="round"/>
<path d="M42.5 37.2574L43.5714 32.9769L46.7187 31.9067" stroke="#E10512" stroke-width="2" stroke-linecap="round" stroke-linejoin="round"/>
<path d="M32.8574 37.2574H50.0003" stroke="#E10512" stroke-width="2" stroke-miterlimit="10" stroke-linecap="round"/>
<path d="M18.9231 25.1457V19.8445C18.9231 15.6265 20.6007 11.5813 23.5868 8.59879C26.573 5.61625 30.6231 3.94067 34.8462 3.94067V3.94067C39.0692 3.94067 43.1193 5.61625 46.1055 8.59879C49.0916 11.5813 50.7692 15.6265 50.7692 19.8445V25.1457M5.65385 25.1457C4.95 25.1457 4.27499 25.425 3.77729 25.9221C3.2796 26.4192 3 27.0934 3 27.7964V63.5799C3 68.5896 7.27269 72.8571 12.2885 72.8571H57.4038C62.4196 72.8571 66.6923 68.7967 66.6923 63.787V27.7964C66.6923 27.0934 66.4127 26.4192 65.915 25.9221C65.4173 25.425 64.7423 25.1457 64.0385 25.1457H5.65385Z" stroke="#E10512" stroke-width="6" stroke-linecap="round" stroke-linejoin="round"/>
</svg>
